<svg xmlns="http://www.w3.org/2000/svg" fill="none" viewBox="0 0 100 100"><g clip-path="url(#a)"><path fill="#4d6bfe" d="M98.95 18.674c-1.059-.517-1.517.471-2.133.975-.213.163-.392.375-.571.567-1.55 1.654-3.359 2.737-5.721 2.608-3.454-.192-6.404.892-9.013 3.534-.554-3.259-2.395-5.2-5.195-6.45-1.467-.65-2.95-1.296-3.98-2.709-.716-1.004-.912-2.125-1.27-3.225-.23-.667-.459-1.346-1.221-1.458-.834-.13-1.159.566-1.484 1.15-1.304 2.383-1.808 5.008-1.758 7.666.112 5.984 2.638 10.75 7.658 14.138.571.388.717.78.538 1.346-.342 1.166-.75 2.3-1.108 3.47-.23.746-.571.905-1.371.584a23 23 0 0 1-7.234-4.917c-3.57-3.45-6.796-7.258-10.82-10.241a47 47 0 0 0-2.871-1.963c-4.105-3.987.541-7.262 1.616-7.65 1.125-.408.388-1.8-3.245-1.783-3.634.016-6.959 1.229-11.196 2.85q-.947.362-1.938.57a40 40 0 0 0-12.012-.424c-7.854.875-14.125 4.591-18.738 10.929C.341 35.858-.963 44.516.633 53.54c1.68 9.517 6.538 17.396 14 23.554 7.742 6.388 16.654 9.517 26.825 8.917 6.175-.355 13.054-1.184 20.809-7.75 1.958.975 4.008 1.362 7.416 1.654 2.625.246 5.15-.125 7.104-.534 3.063-.65 2.85-3.487 1.746-4.004-8.979-4.183-7.008-2.479-8.804-3.858 4.567-5.4 11.442-11.008 14.133-29.18.209-1.445.03-2.353 0-3.52-.016-.708.146-.987.959-1.067a17.4 17.4 0 0 0 6.437-1.979c5.817-3.179 8.167-8.396 8.721-14.654.083-.958-.017-1.942-1.03-2.446M48.254 75c-8.704-6.841-12.925-9.096-14.667-9-1.633.1-1.337 1.963-.979 3.18.375 1.2.863 2.024 1.546 3.078.475.696.8 1.734-.47 2.513-2.805 1.733-7.676-.583-7.905-.696-5.67-3.341-10.417-7.75-13.754-13.779-3.225-5.804-5.1-12.03-5.409-18.675-.083-1.608.388-2.175 1.988-2.467a19.6 19.6 0 0 1 6.37-.162c8.884 1.3 16.442 5.27 22.784 11.558 3.617 3.584 6.354 7.863 9.175 12.046 3 4.442 6.225 8.675 10.334 12.142 1.45 1.216 2.604 2.141 3.712 2.82-3.342.376-8.917.459-12.725-2.558m4.167-26.833a1.275 1.275 0 0 1 1.729-1.196 1.26 1.26 0 0 1 .833 1.2 1.274 1.274 0 0 1-1.291 1.28 1.26 1.26 0 0 1-1.177-.794 1.3 1.3 0 0 1-.094-.49m12.958 6.65c-.833.337-1.663.629-2.458.666a5.2 5.2 0 0 1-3.325-1.058c-1.142-.958-1.959-1.492-2.3-3.158a7.2 7.2 0 0 1 .066-2.45c.292-1.363-.033-2.238-.995-3.03-.78-.65-1.775-.828-2.867-.828a2.3 2.3 0 0 1-1.059-.325c-.458-.226-.833-.792-.474-1.492.116-.225.666-.775.8-.875 1.483-.842 3.195-.567 4.774.067 1.467.6 2.576 1.7 4.171 3.258 1.63 1.879 1.925 2.4 2.855 3.808.733 1.104 1.4 2.238 1.854 3.533.279.813-.08 1.475-1.042 1.884"/></g><defs><clipPath id="a"><path fill="#fff" d="M0 0h100v100H0z"/></clipPath></defs></svg>