<svg xmlns="http://www.w3.org/2000/svg" fill="none" viewBox="0 0 100 100"><path fill="#fff" d="M14.016 98.418c-1.038-3.735-.209-11.2 1.648-14.838.83-1.628.83-1.628-.405-3.907-3.153-5.823-3.367-14.281-.54-21.343 1.07-2.675 1.07-2.675.002-4.655-4.39-8.133-3.007-17.86 3.517-24.734 2.828-2.981 2.828-2.981 2.48-5.09-1.122-6.824.292-16.107 3.081-20.211 5.035-7.41 12.689-2.98 14.73 8.523.275 1.555.55 2.894.609 2.974s1.389-.365 2.953-.991c5.662-2.266 10.94-2.188 16.157.237 1.484.691 2.73 1.205 2.767 1.143.038-.063.288-1.456.556-3.097C63.477.78 71.243-3.845 76.328 3.639c2.792 4.108 4.209 13.423 3.076 20.212-.352 2.109-.352 2.109 2.261 4.851 6.548 6.87 8.02 16.701 3.695 24.684-1.164 2.15-1.164 2.15-.154 4.448 3.01 6.846 2.87 15.916-.337 21.838-1.235 2.28-1.235 2.28-.405 3.908 1.856 3.639 2.685 11.103 1.649 14.838-.44 1.582-.44 1.582-3.215 1.582s-2.775 0-2.406-1.371c.996-3.7.446-9.618-1.22-13.122-1.926-4.05-1.925-4.009-.077-7.003 3.583-5.805 3.66-13.296.203-20.013-1.613-3.133-1.602-3.491.198-6.165 6.778-10.07.199-23.777-11.704-24.382-3.687-.188-3.687-.188-4.596-2.007-5.033-10.079-20.256-10.547-26.14-.806-1.52 2.517-1.52 2.517-5.064 2.748-12.24.8-19.525 17.414-11.104 25.324 1.338 1.257 1.288 2.284-.257 5.288-3.457 6.717-3.382 14.208.201 20.013 1.849 2.994 1.849 2.953-.076 7.003-1.667 3.504-2.217 9.422-1.22 13.122.369 1.37.369 1.37-2.406 1.37s-2.775 0-3.215-1.581m16.242-75.882c3.519-.36 3.766-.77 3.42-5.649-.495-6.97-2.996-12.496-4.883-10.787-2.575 2.33-4.34 17.889-1.926 16.962.35-.134 1.875-.37 3.389-.526m43.836-4.63c-.031-8.37-2.36-14.108-4.648-11.448-2.058 2.392-4.008 12.75-2.807 14.9.407.728 5.544 1.93 7.05 1.65.254-.047.415-2.072.405-5.102M43.917 65.275c-15.28-4.313-10.278-23.165 6.146-23.165 14.805 0 21.187 15.748 8.92 22.012-3.298 1.684-11.077 2.28-15.066 1.153m13.182-4.181c9.164-4.196 4.032-15.516-7.036-15.516-12.628 0-16.347 13.465-4.541 16.443 2.947.743 8.984.26 11.577-.927m-8.512-4.868c0-1.221-.268-1.87-1.055-2.554-1.967-1.711-1.083-2.497 2.742-2.44 3.12.045 4.005 1.154 2.029 2.539-.72.505-.974 1.091-.974 2.256 0 1.467-.093 1.582-1.371 1.706-1.334.128-1.371.087-1.371-1.507m-20.48-7.044c-1.184-1.184-1.318-2.68-.398-4.458 1.781-3.444 6.534-2.355 6.534 1.499 0 3.312-3.901 5.193-6.136 2.959m39.01-.198c-1.611-1.611-1.693-3.829-.197-5.325 1.737-1.737 4.307-1.24 5.5 1.065 2.07 4.008-2.157 7.405-5.303 4.26"/></svg>