<svg xmlns="http://www.w3.org/2000/svg" width="600" height="600" viewBox="0 0 600 600" version="1.1"><path d="M 330.995 210.250 L 320.500 216.500 320.223 230.663 L 319.946 244.825 322.723 246.738 C 329.456 251.375, 342.107 258, 344.231 258 C 345.509 258, 347.443 257.402, 348.527 256.670 C 349.612 255.939, 353.087 253.881, 356.250 252.097 L 362 248.853 362 255.927 L 362 263 345.434 263 C 323.266 263, 322.083 263.669, 322.032 276.250 C 322.014 280.512, 321.778 284, 321.507 284 C 321.235 284, 318.341 281.369, 315.074 278.153 C 305.321 268.550, 291.724 263, 277.951 263 L 272 263 272 254.077 C 272 245.936, 271.773 244.884, 269.411 242.077 L 266.822 239 248.467 239 C 230.508 239, 230.051 239.052, 227.306 241.412 C 224.652 243.694, 224.481 244.344, 224.153 253.412 L 223.807 263 207.038 263 C 191.588 263, 190.063 263.163, 187.635 265.073 L 185 267.145 182.316 265.034 C 179.797 263.052, 178.534 262.931, 161.699 263.047 L 143.766 263.171 140.232 255.836 C 135.748 246.530, 124.294 234.790, 115.660 230.650 C 103.669 224.901, 102.580 224.742, 71.874 224.265 C 46.617 223.873, 42.871 224.015, 40.045 225.477 C 33.826 228.693, 33.929 227.406, 34.228 298.102 L 34.500 362.165 37.766 365.082 L 41.032 368 59.593 368 L 78.154 368 81.077 365.077 C 83.710 362.444, 84 361.507, 84 355.636 C 84 352.051, 84.366 348.892, 84.814 348.615 C 85.262 348.338, 96.171 358.662, 109.056 371.556 C 134.109 396.626, 135.719 397.768, 141.629 394.673 C 145.364 392.716, 168 369.742, 168 367.907 C 167.999 366.710, 176.856 366.540, 227.250 366.769 C 283.837 367.026, 286.792 366.949, 293 365.061 C 301.637 362.434, 310.454 357.092, 316.137 351.043 C 318.687 348.328, 321.049 346.383, 321.387 346.720 C 321.724 347.057, 322 350.654, 322 354.712 C 322 361.189, 322.296 362.387, 324.425 364.516 L 326.851 366.942 365.055 366.937 C 388.314 366.934, 403.982 366.545, 405.107 365.943 C 408.780 363.977, 409.488 360.873, 410 344.500 L 410.500 328.500 426.887 349.200 C 443.545 370.242, 445.836 372.327, 451.173 371.307 C 452.544 371.045, 457.004 368.172, 461.083 364.922 C 465.162 361.673, 468.783 359.011, 469.129 359.007 C 469.474 359.003, 470.292 360.290, 470.945 361.866 C 473.013 366.860, 474.736 367.175, 498.071 366.823 C 518.953 366.508, 519.648 366.431, 525.281 363.791 C 533.747 359.824, 542.022 351.479, 545.958 342.939 C 553.979 325.539, 549.830 306.352, 535.135 292.886 L 528.711 287 533.779 287 C 537.772 287, 539.499 286.451, 541.923 284.411 L 545 281.822 545 263 L 545 244.178 541.923 241.589 C 538.874 239.023, 538.693 239, 521.633 239 C 502.955 239, 495.748 240.188, 488.500 244.463 C 478.648 250.274, 469.735 262.975, 468.389 273.124 C 468.033 275.806, 467.463 277.962, 467.121 277.915 C 466.780 277.869, 465.018 276.105, 463.208 273.997 L 459.915 270.163 462.980 268.353 C 469.580 264.454, 474.411 254.361, 473.790 245.769 C 473.067 235.779, 467.469 230.500, 457.599 230.500 C 452.326 230.500, 450.782 230.929, 447.761 233.233 C 443.312 236.627, 440.520 243.381, 441.266 248.947 C 441.790 252.856, 441.759 252.902, 438.952 252.340 C 434.938 251.538, 431.167 254.158, 420.118 265.429 C 414.958 270.693, 410.602 275, 410.438 275 C 410.275 275, 409.997 268.036, 409.820 259.525 C 409.384 238.459, 410.734 239.659, 386.725 239 L 368.500 238.500 368 227.500 L 367.500 216.500 357.005 210.250 C 351.233 206.813, 345.381 204, 344 204 C 342.619 204, 336.767 206.813, 330.995 210.250 M 341.209 210.239 C 339.949 210.846, 339.138 211.917, 339.408 212.620 C 339.704 213.393, 339.356 213.690, 338.527 213.372 C 336.600 212.632, 332.745 214.894, 333.331 216.421 C 333.663 217.285, 333.083 217.547, 331.507 217.246 C 325.813 216.158, 322.773 225.473, 327.750 228.758 C 329.936 230.202, 330 230.146, 330 226.775 C 330 224.195, 329.423 223.002, 327.750 222.122 C 326.092 221.249, 326.026 221.116, 327.500 221.614 C 328.600 221.985, 330.254 222.320, 331.177 222.359 C 332.099 222.397, 332.646 222.763, 332.394 223.172 C 332.141 223.580, 333.299 224.621, 334.967 225.483 C 336.635 226.346, 338 226.815, 338 226.526 C 338 226.237, 338.900 226.900, 340 228 C 342.247 230.247, 344.195 230.501, 347.130 228.930 C 348.826 228.023, 348.930 227.617, 347.815 226.253 C 346.655 224.835, 346.732 224.774, 348.469 225.735 C 350.832 227.042, 356.509 224.633, 355.378 222.803 C 354.966 222.136, 355.145 221.972, 355.825 222.392 C 356.448 222.777, 357.980 222.566, 359.229 221.923 C 361.491 220.758, 361.492 220.761, 359.500 222.664 C 358.400 223.714, 356.038 225.175, 354.250 225.908 C 351.472 227.049, 351 227.742, 351 230.680 C 351 234.274, 351.590 234.338, 355.298 231.149 C 356.287 230.299, 357.772 229.504, 358.598 229.383 C 361.267 228.991, 363 226.824, 363 223.878 C 363 220.797, 359.964 217, 357.500 217 C 356.675 217, 356 216.605, 356 216.121 C 356 214.865, 350.324 212.682, 349.072 213.456 C 348.467 213.830, 348.246 213.523, 348.550 212.730 C 348.865 211.910, 348.035 210.881, 346.492 210.178 C 345.069 209.530, 343.815 209.030, 343.703 209.068 C 343.591 209.105, 342.469 209.632, 341.209 210.239 M 341.429 216 C 341.429 216.944, 342.381 217.500, 344 217.500 C 345.619 217.500, 346.571 216.944, 346.571 216 C 346.571 215.056, 345.619 214.500, 344 214.500 C 342.381 214.500, 341.429 215.056, 341.429 216 M 335.670 219.583 C 335.899 220.179, 336.722 220.667, 337.500 220.667 C 338.278 220.667, 339.101 220.179, 339.330 219.583 C 339.558 218.988, 338.735 218.500, 337.500 218.500 C 336.265 218.500, 335.442 218.988, 335.670 219.583 M 348.670 219.583 C 348.899 220.179, 349.722 220.667, 350.500 220.667 C 351.278 220.667, 352.101 220.179, 352.330 219.583 C 352.558 218.988, 351.735 218.500, 350.500 218.500 C 349.265 218.500, 348.442 218.988, 348.670 219.583 M 331.187 231.522 C 331.219 236.999, 331.563 238.281, 333.335 239.522 C 336.345 241.630, 337 241.380, 337 238.122 C 337 236.293, 336.180 234.642, 334.750 233.593 L 332.500 231.942 334.750 233.006 C 336.849 233.999, 337 233.844, 337 230.696 C 337 228.050, 336.450 227.070, 334.453 226.161 C 333.052 225.522, 331.736 225, 331.528 225 C 331.320 225, 331.167 227.935, 331.187 231.522 M 325 231.965 C 325 233.873, 325.690 235.299, 326.934 235.965 C 329.747 237.470, 330 237.310, 330 234.035 C 330 232.127, 329.310 230.701, 328.066 230.035 C 325.253 228.530, 325 228.690, 325 231.965 M 338 231.965 C 338 233.873, 338.690 235.299, 339.934 235.965 C 342.747 237.470, 343 237.310, 343 234.035 C 343 232.127, 342.310 230.701, 341.066 230.035 C 338.253 228.530, 338 228.690, 338 231.965 M 346.223 230.557 C 343.959 232.142, 343.087 237, 345.066 237 C 347.825 237, 350 234.781, 350 231.965 C 350 228.593, 349.364 228.356, 346.223 230.557 M 359.750 230.080 C 358.159 231.007, 357.133 237, 358.566 237 C 360.855 237, 363 234.564, 363 231.965 C 363 228.784, 362.487 228.486, 359.750 230.080 M 42.459 233.250 C 42.197 233.938, 42.098 262.850, 42.241 297.500 L 42.500 360.500 59.500 360.500 L 76.500 360.500 76.760 313.750 L 77.020 267 84.609 267 C 93.588 267, 98.081 268.776, 100.984 273.474 C 103.341 277.289, 103.593 282.976, 101.574 286.800 C 100.790 288.285, 96.915 292.650, 92.963 296.500 C 83.777 305.449, 81.020 310.990, 81.020 320.500 C 81.020 332.685, 82.625 334.991, 110.784 363.250 C 124.349 376.863, 136.134 387.983, 136.973 387.963 C 139.265 387.908, 161 366.659, 161 364.474 C 161 363.379, 152.313 353.885, 139.994 341.517 L 118.988 320.428 123.545 315.964 C 146.125 293.842, 142.742 256.716, 116.606 239.824 C 105.557 232.682, 101.524 232, 70.363 232 C 49.344 232, 42.826 232.292, 42.459 233.250 M 353.250 233.733 C 351.100 235.177, 349.920 241, 351.777 241 C 353.810 241, 357 237.642, 357 235.502 C 357 232.367, 355.993 231.892, 353.250 233.733 M 325 239.361 C 325 241.930, 325.565 242.936, 327.500 243.818 C 329.893 244.908, 330 244.815, 330 241.639 C 330 239.070, 329.435 238.064, 327.500 237.182 C 325.107 236.092, 325 236.185, 325 239.361 M 338.186 239.129 C 338.377 241.039, 339.383 242.856, 340.750 243.758 C 342.936 245.202, 343 245.146, 343 241.782 C 343 239.038, 342.469 238.079, 340.436 237.153 C 337.956 236.023, 337.882 236.088, 338.186 239.129 M 346.750 237.613 C 344.022 239.052, 342.895 243.199, 344.896 244.436 C 346.683 245.540, 350.188 241.542, 349.838 238.801 C 349.512 236.253, 349.405 236.212, 346.750 237.613 M 360.250 237.290 C 358.560 238.053, 358 239.148, 358 241.688 C 358 244.791, 358.170 244.980, 360.056 243.970 C 362.444 242.692, 363.292 240.931, 362.829 238.210 C 362.554 236.592, 362.131 236.441, 360.250 237.290 M 454.500 237.924 C 447.104 241.030, 446.856 252.233, 454.132 254.542 C 455.539 254.988, 456 256.106, 456 259.067 C 456 264.145, 457.857 264.210, 461.923 259.277 C 465.751 254.634, 467.381 249.846, 466.584 245.595 C 465.521 239.930, 459.231 235.937, 454.500 237.924 M 331 242.974 C 331 245.268, 331.687 246.304, 334 247.500 L 337 249.051 337 246.082 C 337 244.148, 336.226 242.571, 334.777 241.557 C 331.634 239.355, 331 239.593, 331 242.974 M 353.250 241.220 C 351.574 242.029, 351 243.169, 351 245.688 C 351 248.880, 351.127 249.004, 353.250 247.885 C 356.098 246.386, 356.965 245.076, 356.985 242.250 C 357.002 239.760, 356.542 239.633, 353.250 241.220 M 338 246.965 C 338 248.873, 338.690 250.299, 339.934 250.965 C 342.747 252.470, 343 252.310, 343 249.035 C 343 247.127, 342.310 245.701, 341.066 245.035 C 338.253 243.530, 338 243.690, 338 246.965 M 346.223 245.557 C 343.959 247.142, 343.087 252, 345.066 252 C 347.825 252, 350 249.781, 350 246.965 C 350 243.593, 349.364 243.356, 346.223 245.557 M 232.667 246.667 C 232.300 247.033, 232 272.683, 232 303.667 L 232 360 257.750 359.976 C 271.913 359.962, 285.525 359.485, 288 358.915 C 301.048 355.910, 313.338 345.842, 319.285 333.288 C 322.325 326.869, 322.500 325.875, 322.500 315 C 322.500 304.135, 322.323 303.127, 319.299 296.741 C 313.263 284, 301.831 274.822, 287.907 271.540 C 280.186 269.720, 270.850 269.550, 269.200 271.200 C 267.528 272.872, 267.528 300.128, 269.200 301.800 C 269.860 302.460, 272.943 303, 276.052 303 C 286.037 303, 292.266 309.830, 289.946 318.233 C 288.069 325.030, 282.385 328, 271.257 328 L 265 328 265 288.582 C 265 266.902, 264.727 248.452, 264.393 247.582 C 263.876 246.235, 261.522 246, 248.560 246 C 240.185 246, 233.033 246.300, 232.667 246.667 M 369.459 247.250 C 369.196 247.938, 369.097 273.475, 369.240 304 L 369.500 359.500 385.750 359.775 L 402 360.050 402 303.025 L 402 246 385.969 246 C 374.065 246, 369.814 246.322, 369.459 247.250 M 503.115 247.128 C 478.987 251.135, 466.889 281.020, 481.230 301.190 C 483.049 303.750, 490.086 310.491, 496.868 316.172 L 509.198 326.500 493.349 327 L 477.500 327.500 477.500 343.500 L 477.500 359.500 497 359.500 C 516.278 359.500, 516.568 359.468, 522.500 356.693 C 534.987 350.850, 542.227 339.252, 542.319 324.942 C 542.361 318.490, 541.916 316.442, 539.276 310.942 C 535.359 302.783, 533.900 301.150, 520.500 289.938 C 514.450 284.876, 509.350 280.344, 509.167 279.867 C 508.983 279.390, 515.396 279, 523.417 279 L 538 279 538 263.107 C 538 249.537, 537.769 247.125, 536.418 246.607 C 534.074 245.707, 509.339 246.095, 503.115 247.128 M 555.455 249.455 C 548.770 256.139, 557.455 266.573, 565.929 262.038 C 567.917 260.974, 570.634 255.301, 569.635 254.301 C 569.286 253.952, 569 254.356, 569 255.198 C 569 256.041, 568.067 257.916, 566.927 259.365 C 562.771 264.649, 554 261.687, 554 255 C 554 248.313, 562.771 245.351, 566.927 250.635 C 568.067 252.084, 569 252.837, 569 252.309 C 569 251.781, 567.958 250.370, 566.686 249.174 C 563.512 246.193, 558.593 246.316, 555.455 249.455 M 558.116 255.250 C 558.180 257.587, 558.438 258.712, 558.689 257.750 C 559.251 255.602, 560.904 255.492, 562.390 257.503 C 563.277 258.704, 563.546 258.201, 563.727 255.003 C 563.944 251.178, 563.822 251, 560.977 251 C 558.123 251, 558.005 251.176, 558.116 255.250 M 559 253.500 C 559 254.333, 559.889 255, 561 255 C 562.111 255, 563 254.333, 563 253.500 C 563 252.667, 562.111 252, 561 252 C 559.889 252, 559 252.667, 559 253.500 M 423.781 272.750 C 408.141 288.456, 406.056 291.901, 406.022 302.093 C 406.005 307.071, 406.551 309.695, 408.250 312.807 C 411.486 318.736, 447.805 364, 449.326 364 C 451.663 364, 474.184 344.921, 473.610 343.427 C 473.315 342.658, 465.897 333.086, 457.125 322.156 L 441.177 302.284 450.589 292.912 C 455.765 287.757, 460 282.830, 460 281.962 C 460 280.646, 439.154 259, 437.886 259 C 437.659 259, 431.312 265.188, 423.781 272.750 M 146.425 271.335 C 146.133 272.097, 146.030 286.846, 146.197 304.110 L 146.500 335.500 149.187 340.592 C 152.801 347.442, 161.617 355.339, 168.541 357.929 C 173.595 359.820, 176.240 360, 199.038 360 L 224 360 224 314.975 L 224 269.950 207.750 270.225 L 191.500 270.500 191.234 298.799 L 190.969 327.099 185.234 326.799 L 179.500 326.500 179 298.500 L 178.500 270.500 162.728 270.224 C 150.021 270.003, 146.853 270.218, 146.425 271.335 M 329.467 271.224 C 329.198 271.926, 329.096 292.075, 329.239 316 L 329.500 359.500 345.500 359.500 L 361.500 359.500 361.500 315 L 361.500 270.500 345.728 270.224 C 333.661 270.014, 329.842 270.249, 329.467 271.224 M 84.667 275.667 C 83.723 276.610, 83.834 293, 84.784 293 C 86.206 293, 96 282.469, 96 280.941 C 96 277.602, 92.983 275, 89.110 275 C 87.033 275, 85.033 275.300, 84.667 275.667 M 458.729 294.461 L 450.958 302.665 460.213 314.284 L 469.467 325.902 472.352 322.951 C 474.951 320.293, 475.870 320, 481.619 320 C 485.128 320, 488 319.778, 488 319.506 C 488 319.235, 484.935 315.972, 481.188 312.256 C 474.158 305.284, 470.700 299.361, 468.670 290.812 C 468.041 288.165, 467.296 286.058, 467.013 286.129 C 466.731 286.200, 463.003 289.950, 458.729 294.461 M 272 315 L 272 320 275.845 320 C 279.837 320, 283 317.713, 283 314.826 C 283 312.278, 279.541 310, 275.671 310 L 272 310 272 315 M 133.587 316.004 L 129.674 321.145 133.803 325.273 C 136.074 327.544, 138.059 329.199, 138.216 328.951 C 138.372 328.703, 138.275 324.532, 138 319.682 L 137.500 310.864 133.587 316.004" stroke="none" fill="#1a1a18" fill-rule="evenodd"/><path d="M 359.439 222.787 C 358.372 223.770, 356.038 225.175, 354.250 225.908 C 351.472 227.049, 351 227.742, 351 230.680 C 351 234.274, 351.590 234.338, 355.298 231.149 C 356.287 230.299, 357.772 229.504, 358.598 229.383 C 361.267 228.991, 363 226.824, 363 223.878 C 363 220.549, 362.149 220.289, 359.439 222.787 M 346.223 230.557 C 343.959 232.142, 343.087 237, 345.066 237 C 347.825 237, 350 234.781, 350 231.965 C 350 228.593, 349.364 228.356, 346.223 230.557 M 359.750 230.080 C 358.159 231.007, 357.133 237, 358.566 237 C 360.855 237, 363 234.564, 363 231.965 C 363 228.784, 362.487 228.486, 359.750 230.080 M 353.250 233.733 C 351.100 235.177, 349.920 241, 351.777 241 C 353.810 241, 357 237.642, 357 235.502 C 357 232.367, 355.993 231.892, 353.250 233.733 M 346.750 237.613 C 344.022 239.052, 342.895 243.199, 344.896 244.436 C 346.683 245.540, 350.188 241.542, 349.838 238.801 C 349.512 236.253, 349.405 236.212, 346.750 237.613 M 360.250 237.290 C 358.560 238.053, 358 239.148, 358 241.688 C 358 244.791, 358.170 244.980, 360.056 243.970 C 362.444 242.692, 363.292 240.931, 362.829 238.210 C 362.554 236.592, 362.131 236.441, 360.250 237.290 M 454.500 237.924 C 447.104 241.030, 446.856 252.233, 454.132 254.542 C 455.539 254.988, 456 256.106, 456 259.067 C 456 264.145, 457.857 264.210, 461.923 259.277 C 465.751 254.634, 467.381 249.846, 466.584 245.595 C 465.521 239.930, 459.231 235.937, 454.500 237.924 M 353.250 241.220 C 351.574 242.029, 351 243.169, 351 245.688 C 351 248.880, 351.127 249.004, 353.250 247.885 C 356.098 246.386, 356.965 245.076, 356.985 242.250 C 357.002 239.760, 356.542 239.633, 353.250 241.220 M 346.223 245.557 C 343.959 247.142, 343.087 252, 345.066 252 C 347.825 252, 350 249.781, 350 246.965 C 350 243.593, 349.364 243.356, 346.223 245.557 M 503.115 247.128 C 478.987 251.135, 466.889 281.020, 481.230 301.190 C 483.049 303.750, 490.086 310.491, 496.868 316.172 L 509.198 326.500 493.349 327 L 477.500 327.500 477.500 343.500 L 477.500 359.500 497 359.500 C 516.278 359.500, 516.568 359.468, 522.500 356.693 C 534.987 350.850, 542.227 339.252, 542.319 324.942 C 542.361 318.490, 541.916 316.442, 539.276 310.942 C 535.359 302.783, 533.900 301.150, 520.500 289.938 C 514.450 284.876, 509.350 280.344, 509.167 279.867 C 508.983 279.390, 515.396 279, 523.417 279 L 538 279 538 263.107 C 538 249.537, 537.769 247.125, 536.418 246.607 C 534.074 245.707, 509.339 246.095, 503.115 247.128" stroke="none" fill="#e40026" fill-rule="evenodd"/><path d="M 341 211.034 C 339.702 211.903, 339.761 212.237, 341.441 213.519 C 342.509 214.334, 343.660 215, 344 215 C 344.340 215, 345.491 214.334, 346.559 213.519 C 348.239 212.237, 348.298 211.903, 347 211.034 C 346.175 210.482, 344.825 210.031, 344 210.031 C 343.175 210.031, 341.825 210.482, 341 211.034 M 335.250 214.295 C 334.012 214.851, 333 215.615, 333 215.992 C 333 217.554, 337.528 218.703, 339.750 217.705 C 340.988 217.149, 342 216.385, 342 216.008 C 342 214.446, 337.472 213.297, 335.250 214.295 M 348.250 214.295 C 347.012 214.851, 346 215.615, 346 215.992 C 346 217.554, 350.528 218.703, 352.750 217.705 C 353.988 217.149, 355 216.385, 355 216.008 C 355 214.446, 350.472 213.297, 348.250 214.295 M 328.082 218.410 L 325.664 219.750 327.925 220.960 C 330.316 222.240, 335 221.615, 335 220.016 C 335 219.215, 331.787 216.926, 330.816 217.035 C 330.642 217.055, 329.412 217.674, 328.082 218.410 M 341.441 218.481 C 339.761 219.763, 339.702 220.097, 341 220.966 C 341.825 221.518, 343.175 221.969, 344 221.969 C 344.825 221.969, 346.175 221.518, 347 220.966 C 348.298 220.097, 348.239 219.763, 346.559 218.481 C 345.491 217.666, 344.340 217, 344 217 C 343.660 217, 342.509 217.666, 341.441 218.481 M 354.750 218.080 C 353.788 218.641, 353 219.518, 353 220.031 C 353 221.617, 357.694 222.234, 360.075 220.960 L 362.336 219.750 359.918 218.410 C 357.009 216.799, 356.956 216.795, 354.750 218.080 M 334.451 222.412 C 332.582 223.779, 332.604 223.863, 335.133 225.015 C 337.170 225.943, 338.256 225.933, 340.054 224.971 C 342.275 223.783, 342.291 223.686, 340.489 222.368 C 338.121 220.637, 336.867 220.646, 334.451 222.412 M 347.451 222.412 C 345.582 223.779, 345.604 223.863, 348.133 225.015 C 350.170 225.943, 351.256 225.933, 353.054 224.971 C 355.275 223.783, 355.291 223.686, 353.489 222.368 C 351.121 220.637, 349.867 220.646, 347.451 222.412 M 340.604 226.300 C 338.950 227.510, 339.010 227.684, 341.470 228.805 C 344.919 230.376, 348.814 228.686, 346.942 226.430 C 345.465 224.650, 342.932 224.598, 340.604 226.300 M 370.469 247.224 C 370.200 247.926, 370.097 273.475, 370.240 304 L 370.500 359.500 384 359.788 C 391.425 359.946, 398.516 359.824, 399.758 359.517 L 402.017 358.958 401.758 302.729 L 401.500 246.500 386.229 246.224 C 374.562 246.013, 370.842 246.249, 370.469 247.224 M 423.814 272.758 C 410.301 286.520, 407.128 291.361, 406.289 299.491 C 405.319 308.890, 407.184 312.195, 428.588 339 C 439.348 352.475, 448.495 363.626, 448.914 363.780 C 450.066 364.202, 472.451 346.047, 472.829 344.384 C 473.010 343.588, 466.238 334.289, 457.780 323.719 C 449.321 313.148, 442.029 303.889, 441.575 303.143 C 440.993 302.186, 443.653 298.873, 450.607 291.892 L 460.464 281.998 449.499 270.999 C 443.468 264.950, 438.041 260, 437.437 260 C 436.834 260, 430.704 265.741, 423.814 272.758" stroke="none" fill="#ffe100" fill-rule="evenodd"/><path d="M 341.250 223.500 C 341.250 224.992, 341.531 225.828, 341.875 225.357 C 343.498 223.132, 348.599 226.104, 347.251 228.489 C 346.937 229.045, 347.065 229.149, 347.535 228.721 C 348.711 227.651, 349.044 224.855, 347.912 225.554 C 346.996 226.121, 346.625 224.789, 346.923 222 C 347.019 221.101, 346.766 220.901, 346.292 221.500 C 345.322 222.725, 342.726 222.809, 341.875 221.643 C 341.531 221.172, 341.250 222.008, 341.250 223.500 M 514.250 238.743 C 518.513 238.931, 525.487 238.931, 529.750 238.743 C 534.013 238.556, 530.525 238.402, 522 238.402 C 513.475 238.402, 509.988 238.556, 514.250 238.743 M 369.667 246.667 C 368.741 247.592, 368.824 358.773, 369.750 359.345 C 370.163 359.600, 370.500 334.202, 370.500 302.905 C 370.500 271.607, 370.462 246, 370.417 246 C 370.371 246, 370.033 246.300, 369.667 246.667 M 272.424 255 L 272.500 262.500 277.500 262.578 L 282.500 262.656 277.793 262.277 L 273.086 261.898 272.717 254.699 L 272.349 247.500 272.424 255 M 361.185 255.725 L 361 261.950 344.750 262.252 L 328.500 262.553 344.781 262.777 C 357.795 262.955, 361.168 262.725, 361.588 261.631 C 361.877 260.878, 361.946 257.840, 361.742 254.881 L 361.370 249.500 361.185 255.725 M 557.402 251.395 C 557.108 252.162, 557.046 254.524, 557.265 256.645 C 557.649 260.359, 557.670 260.329, 557.832 255.816 C 557.986 251.526, 558.231 251.098, 560.750 250.716 L 563.500 250.300 560.719 250.150 C 559.146 250.065, 557.705 250.606, 557.402 251.395 M 448.982 270.250 C 454.747 276.163, 459.585 281, 459.732 281 C 460.454 281, 459.235 279.718, 449.250 269.982 L 438.500 259.500 448.982 270.250 M 153.750 262.744 C 158.287 262.929, 165.713 262.929, 170.250 262.744 C 174.787 262.559, 171.075 262.407, 162 262.407 C 152.925 262.407, 149.213 262.559, 153.750 262.744 M 199.299 262.745 C 204.139 262.929, 211.789 262.928, 216.299 262.743 C 220.810 262.558, 216.850 262.408, 207.500 262.409 C 198.150 262.410, 194.460 262.562, 199.299 262.745 M 154.250 270.743 C 158.512 270.931, 165.488 270.931, 169.750 270.743 C 174.012 270.556, 170.525 270.402, 162 270.402 C 153.475 270.402, 149.988 270.556, 154.250 270.743 M 329.467 271.224 C 329.198 271.926, 329.096 292.075, 329.239 316 L 329.500 359.500 345.500 359.500 L 361.500 359.500 361.500 315 L 361.500 270.500 345.728 270.224 C 333.661 270.014, 329.842 270.249, 329.467 271.224 M 449.980 292.750 L 440.500 302.500 450.250 293.020 C 459.306 284.215, 460.455 283, 459.730 283 C 459.582 283, 455.194 287.387, 449.980 292.750 M 458.473 295.250 L 451.500 302.500 458.750 295.527 C 465.484 289.050, 466.457 288, 465.723 288 C 465.571 288, 462.308 291.262, 458.473 295.250 M 479 311.500 C 480.866 313.425, 482.617 315, 482.892 315 C 483.167 315, 481.866 313.425, 480 311.500 C 478.134 309.575, 476.383 308, 476.108 308 C 475.833 308, 477.134 309.575, 479 311.500 M 133.500 325 C 135.648 327.200, 137.631 329, 137.906 329 C 138.181 329, 136.648 327.200, 134.500 325 C 132.352 322.800, 130.369 321, 130.094 321 C 129.819 321, 131.352 322.800, 133.500 325 M 89.958 353.250 C 92.410 355.863, 94.548 358, 94.708 358 C 95.459 358, 94.665 357.102, 90.250 352.958 L 85.500 348.500 89.958 353.250 M 154.984 382.750 L 143.500 394.500 155.250 383.016 C 166.164 372.350, 167.454 371, 166.734 371 C 166.587 371, 161.300 376.288, 154.984 382.750" stroke="none" fill="#ef7c00" fill-rule="evenodd"/><path d="M 319.392 231 C 319.392 238.425, 319.549 241.463, 319.742 237.750 C 319.934 234.037, 319.934 227.963, 319.742 224.250 C 319.549 220.537, 319.392 223.575, 319.392 231 M 368.370 228 C 368.370 233.775, 368.535 236.137, 368.737 233.250 C 368.939 230.363, 368.939 225.637, 368.737 222.750 C 368.535 219.863, 368.370 222.225, 368.370 228 M 325.186 224.129 C 325.377 226.039, 326.383 227.856, 327.750 228.758 C 329.936 230.202, 330 230.146, 330 226.782 C 330 224.038, 329.469 223.079, 327.436 222.153 C 324.956 221.023, 324.882 221.088, 325.186 224.129 M 331.187 231.522 C 331.219 236.999, 331.563 238.281, 333.335 239.522 C 336.345 241.630, 337 241.380, 337 238.122 C 337 236.293, 336.180 234.642, 334.750 233.593 L 332.500 231.942 334.750 233.006 C 336.849 233.999, 337 233.844, 337 230.696 C 337 228.050, 336.450 227.070, 334.453 226.161 C 333.052 225.522, 331.736 225, 331.528 225 C 331.320 225, 331.167 227.935, 331.187 231.522 M 325 231.965 C 325 233.873, 325.690 235.299, 326.934 235.965 C 329.747 237.470, 330 237.310, 330 234.035 C 330 232.127, 329.310 230.701, 328.066 230.035 C 325.253 228.530, 325 228.690, 325 231.965 M 338 231.965 C 338 233.873, 338.690 235.299, 339.934 235.965 C 342.747 237.470, 343 237.310, 343 234.035 C 343 232.127, 342.310 230.701, 341.066 230.035 C 338.253 228.530, 338 228.690, 338 231.965 M 325 239.361 C 325 241.930, 325.565 242.936, 327.500 243.818 C 329.893 244.908, 330 244.815, 330 241.639 C 330 239.070, 329.435 238.064, 327.500 237.182 C 325.107 236.092, 325 236.185, 325 239.361 M 338.186 239.129 C 338.377 241.039, 339.383 242.856, 340.750 243.758 C 342.936 245.202, 343 245.146, 343 241.782 C 343 239.038, 342.469 238.079, 340.436 237.153 C 337.956 236.023, 337.882 236.088, 338.186 239.129 M 239.750 238.744 C 244.287 238.929, 251.713 238.929, 256.250 238.744 C 260.788 238.559, 257.075 238.407, 248 238.407 C 238.925 238.407, 235.213 238.559, 239.750 238.744 M 377.750 238.744 C 382.288 238.929, 389.712 238.929, 394.250 238.744 C 398.788 238.559, 395.075 238.407, 386 238.407 C 376.925 238.407, 373.212 238.559, 377.750 238.744 M 331 242.974 C 331 245.268, 331.687 246.304, 334 247.500 L 337 249.051 337 246.082 C 337 244.148, 336.226 242.571, 334.777 241.557 C 331.634 239.355, 331 239.593, 331 242.974 M 338 246.965 C 338 248.873, 338.690 250.299, 339.934 250.965 C 342.747 252.470, 343 252.310, 343 249.035 C 343 247.127, 342.310 245.701, 341.066 245.035 C 338.253 243.530, 338 243.690, 338 246.965 M 232.667 246.667 C 232.300 247.033, 232 272.683, 232 303.667 L 232 360 257.750 359.976 C 271.913 359.962, 285.525 359.485, 288 358.915 C 301.048 355.910, 313.338 345.842, 319.285 333.288 C 322.325 326.869, 322.500 325.875, 322.500 315 C 322.500 304.135, 322.323 303.127, 319.299 296.741 C 313.263 284, 301.831 274.822, 287.907 271.540 C 280.186 269.720, 270.850 269.550, 269.200 271.200 C 267.528 272.872, 267.528 300.128, 269.200 301.800 C 269.860 302.460, 272.943 303, 276.052 303 C 286.037 303, 292.266 309.830, 289.946 318.233 C 288.069 325.030, 282.385 328, 271.257 328 L 265 328 265 288.582 C 265 266.902, 264.727 248.452, 264.393 247.582 C 263.876 246.235, 261.522 246, 248.560 246 C 240.185 246, 233.033 246.300, 232.667 246.667 M 545.409 262.500 C 545.408 271.850, 545.558 275.810, 545.743 271.299 C 545.928 266.789, 545.929 259.139, 545.745 254.299 C 545.562 249.460, 545.410 253.150, 545.409 262.500 M 321.336 277 C 321.336 281.125, 321.513 282.813, 321.728 280.750 C 321.944 278.688, 321.944 275.313, 321.728 273.250 C 321.513 271.188, 321.336 272.875, 321.336 277 M 84.355 284.500 C 84.352 289.450, 84.521 291.601, 84.731 289.280 C 84.940 286.959, 84.943 282.909, 84.736 280.280 C 84.530 277.651, 84.358 279.550, 84.355 284.500 M 138.286 280.500 C 138.294 283.250, 138.488 284.256, 138.718 282.736 C 138.947 281.216, 138.941 278.966, 138.704 277.736 C 138.467 276.506, 138.279 277.750, 138.286 280.500 M 485.827 317.195 C 487.032 318.735, 486.667 318.924, 481.827 319.260 L 476.500 319.630 482.250 319.815 C 488.201 320.006, 489.256 319.230, 486.250 316.872 C 484.676 315.638, 484.634 315.671, 485.827 317.195 M 139 341.500 C 150.265 352.775, 159.707 362, 159.982 362 C 160.257 362, 151.265 352.775, 140 341.500 C 128.735 330.225, 119.293 321, 119.018 321 C 118.743 321, 127.735 330.225, 139 341.500 M 111 363.500 C 124.467 376.975, 135.710 388, 135.985 388 C 136.260 388, 125.467 376.975, 112 363.500 C 98.533 350.025, 87.290 339, 87.015 339 C 86.740 339, 97.533 350.025, 111 363.500 M 319.458 347.067 C 318.964 347.868, 319.101 348.055, 319.845 347.595 C 320.669 347.087, 321.055 348.836, 321.193 353.691 L 321.385 360.500 321.744 354.102 C 322.096 347.829, 321.025 344.533, 319.458 347.067 M 84.409 349.377 C 84.118 350.134, 84.028 352.947, 84.209 355.627 L 84.538 360.500 85.019 354.248 C 85.505 347.932, 85.372 346.868, 84.409 349.377 M 536.946 355.750 L 533.500 359.500 537.250 356.054 C 540.740 352.846, 541.460 352, 540.696 352 C 540.529 352, 538.842 353.688, 536.946 355.750 M 112 375.500 C 121.613 385.125, 129.704 393, 129.979 393 C 130.254 393, 122.613 385.125, 113 375.500 C 103.387 365.875, 95.296 358, 95.021 358 C 94.746 358, 102.387 365.875, 112 375.500 M 155.946 370.750 L 152.500 374.500 156.250 371.054 C 159.740 367.846, 160.460 367, 159.696 367 C 159.529 367, 157.842 368.688, 155.946 370.750 M 188.807 367.747 C 195.576 367.921, 206.376 367.920, 212.807 367.746 C 219.238 367.572, 213.700 367.431, 200.500 367.431 C 187.300 367.432, 182.038 367.574, 188.807 367.747 M 244.250 367.747 C 251.262 367.919, 262.738 367.919, 269.750 367.747 C 276.762 367.575, 271.025 367.435, 257 367.435 C 242.975 367.435, 237.238 367.575, 244.250 367.747 M 337.299 367.745 C 342.139 367.929, 349.789 367.928, 354.299 367.743 C 358.810 367.558, 354.850 367.408, 345.500 367.409 C 336.150 367.410, 332.460 367.562, 337.299 367.745 M 378.250 367.743 C 382.512 367.931, 389.488 367.931, 393.750 367.743 C 398.012 367.556, 394.525 367.402, 386 367.402 C 377.475 367.402, 373.988 367.556, 378.250 367.743 M 486.199 367.744 C 490.984 367.927, 499.084 367.928, 504.199 367.746 C 509.315 367.564, 505.400 367.414, 495.500 367.413 C 485.600 367.412, 481.415 367.561, 486.199 367.744 M 51.797 368.745 C 56.361 368.930, 63.561 368.929, 67.797 368.742 C 72.034 368.555, 68.300 368.404, 59.500 368.405 C 50.700 368.406, 47.234 368.559, 51.797 368.745" stroke="none" fill="#01509d" fill-rule="evenodd"/><path d="M 0 300.002 L 0 600.003 300.250 599.752 L 600.500 599.500 600.752 299.750 L 601.003 0 300.502 0 L 0 0 0 300.002 M 0.493 300.500 C 0.493 465.500, 0.609 532.851, 0.750 450.169 C 0.891 367.487, 0.891 232.487, 0.750 150.169 C 0.609 67.851, 0.493 135.500, 0.493 300.500 M 331.984 209.033 C 326.218 212.351, 320.938 215.812, 320.250 216.724 C 319.401 217.850, 319 222.495, 319 231.191 C 319 242.076, 319.264 244.264, 320.757 245.757 C 323.050 248.050, 342.400 259.001, 344.150 258.996 C 344.893 258.994, 346.850 258.186, 348.500 257.201 C 350.150 256.215, 353.637 254.173, 356.250 252.662 L 361 249.916 361 255.892 L 361 261.868 343.916 262.184 L 326.831 262.500 323.916 265.766 C 321.275 268.723, 321 269.702, 321 276.130 L 321 283.229 314.564 277.209 C 311.024 273.898, 305.287 269.793, 301.814 268.088 C 295.054 264.768, 284.094 262.046, 277.375 262.017 L 273.251 262 272.810 253.607 C 272.327 244.397, 270.651 240.578, 266.383 238.955 C 265.001 238.430, 256.677 238, 247.885 238 C 225.366 238, 224 238.879, 224 253.370 L 224 261.871 206.602 262.186 C 191.772 262.454, 188.921 262.756, 187.288 264.237 C 185.465 265.889, 185.180 265.875, 181.436 263.947 C 177.896 262.123, 175.815 261.937, 160.748 262.091 L 143.997 262.262 140.311 254.896 C 135.542 245.361, 125.108 234.791, 116 230.266 C 104.455 224.529, 100.548 224, 69.740 224 C 39.520 224, 37.545 224.313, 35.195 229.472 C 34.308 231.419, 34 248.768, 34 296.825 C 34 367.882, 33.690 364.237, 40.011 367.506 C 44.203 369.673, 74.832 369.655, 79.033 367.483 C 83.078 365.391, 85 361.155, 85 354.327 L 85 348.555 108.798 372.278 C 139.092 402.476, 136.816 402.021, 156.622 381.835 C 162.739 375.601, 168.043 369.529, 168.410 368.341 C 169.005 366.416, 169.446 366.284, 172.490 367.125 C 174.412 367.656, 186.956 367.881, 201.202 367.641 C 215.116 367.407, 227.400 367.231, 228.500 367.252 C 229.600 367.272, 243.550 367.335, 259.500 367.391 C 287.395 367.490, 288.743 367.407, 294.887 365.191 C 302.954 362.280, 310.876 357.233, 316.567 351.378 L 321 346.816 321 354.008 C 321 360.872, 321.157 361.357, 324.444 364.644 L 327.888 368.088 346.194 367.640 C 368.436 367.094, 364.192 367.094, 384.426 367.640 C 409.935 368.328, 409.821 368.426, 410.224 345.376 L 410.500 329.604 425.846 348.805 C 434.286 359.365, 442.334 368.904, 443.731 370.003 C 448.265 373.570, 452.030 372.666, 460.419 366 C 468.179 359.834, 470 358.961, 470 361.411 C 470 362.187, 471.429 364.025, 473.176 365.495 L 476.352 368.167 497.482 367.834 L 518.612 367.500 526.214 363.741 C 553.784 350.108, 558.852 315.058, 536.391 293.359 L 529.810 287 534.849 287 C 538.733 287, 540.532 286.447, 542.694 284.589 L 545.500 282.177 545.814 264.011 C 546.082 248.493, 545.889 245.479, 544.486 243.339 C 541.683 239.060, 537.363 237.999, 522.782 238.008 C 499.841 238.021, 490.447 240.681, 480.662 249.935 C 474.514 255.750, 470.860 261.938, 468.445 270.622 L 466.743 276.744 463.967 273.637 L 461.190 270.529 465.135 267.152 C 474.300 259.308, 477.325 245.622, 471.754 237.205 C 465.560 227.844, 453.332 226.639, 445.576 234.624 C 441.945 238.364, 439.854 244.785, 440.747 249.457 C 441.198 251.817, 440.962 252, 437.463 252 C 434.007 252, 432.764 252.917, 422.544 263 C 416.412 269.050, 411.081 274, 410.697 274 C 410.314 274, 410 267.445, 410 259.434 C 410 251.357, 409.541 244.012, 408.970 242.945 C 406.743 238.782, 403.039 238, 385.550 238 L 369 238 369 228.434 C 369 223.173, 368.559 218.044, 368.020 217.037 C 366.959 215.054, 346.242 203, 343.897 203 C 343.111 203, 337.750 205.715, 331.984 209.033 M 558.091 247.069 C 554.741 248.438, 553.069 250.949, 553.032 254.668 C 552.986 259.185, 553.853 260.873, 557.072 262.537 C 561.268 264.707, 563.819 264.335, 567.077 261.077 C 570.676 257.477, 570.930 253.152, 567.750 249.593 C 565.111 246.640, 561.468 245.688, 558.091 247.069 M 556.944 249.844 C 552.154 253.723, 555.332 262, 561.611 262 C 567.610 262, 570.174 253.855, 565.365 250.073 C 562.113 247.514, 559.895 247.454, 556.944 249.844 M 557.667 250.667 C 556.602 251.732, 556.897 260, 558 260 C 558.550 260, 559 259.100, 559 258 C 559 255.357, 560.396 255.464, 562.269 258.250 C 563.101 259.488, 564.120 260.173, 564.533 259.774 C 564.947 259.375, 564.716 258.362, 564.020 257.524 C 563.010 256.307, 563.006 255.698, 564 254.500 C 564.993 253.303, 564.993 252.697, 564 251.500 C 562.730 249.970, 558.871 249.462, 557.667 250.667 M 559 253 C 559 253.550, 559.927 254, 561.059 254 C 562.191 254, 562.840 253.550, 562.500 253 C 562.160 252.450, 561.234 252, 560.441 252 C 559.648 252, 559 252.450, 559 253 M 192.200 271.200 C 191.325 272.075, 191 279.800, 191 299.700 L 191 327 185.016 327 L 179.032 327 178.766 299.250 L 178.500 271.500 162.186 271.225 L 145.871 270.950 146.186 302.225 C 146.486 332.108, 146.599 333.715, 148.729 338.330 C 153.478 348.620, 161.276 355.337, 172.072 358.438 C 176.600 359.739, 181.939 359.988, 200.572 359.769 L 223.500 359.500 223.761 315.566 C 223.965 281.081, 223.750 271.459, 222.761 270.831 C 220.658 269.496, 193.577 269.823, 192.200 271.200 M 85 283.500 C 85 288.175, 85.320 292, 85.712 292 C 86.104 292, 88.354 290.106, 90.712 287.792 C 97.188 281.436, 95.910 275, 88.171 275 L 85 275 85 283.500 M 459.125 295.159 L 451.750 302.886 460.523 313.916 L 469.297 324.947 472.683 321.973 C 475.581 319.429, 476.882 319, 481.695 319 L 487.321 319 481.286 313.250 C 474.434 306.723, 470.682 300.758, 468.862 293.500 C 468.172 290.750, 467.359 288.260, 467.054 287.966 C 466.749 287.673, 463.181 290.909, 459.125 295.159 M 272.193 315.250 C 272.466 319.032, 272.797 319.534, 275.201 319.812 C 278.937 320.243, 282 318.375, 282 315.665 C 282 312.392, 280.133 311, 275.743 311 L 271.885 311 272.193 315.250 M 133.778 316.361 L 130.132 320.723 134.066 324.564 L 138 328.406 138 320.203 C 138 315.691, 137.870 312, 137.712 312 C 137.553 312, 135.783 313.963, 133.778 316.361" stroke="none" fill="#ffffff" fill-rule="evenodd"/><path d="M 42.722 232.612 C 42.325 233.009, 42 261.785, 42 296.560 C 42 353.291, 42.162 359.848, 43.582 360.393 C 46.668 361.577, 74.535 361.065, 75.800 359.800 C 76.698 358.902, 77 347.089, 77 312.800 L 77 267 85.050 267 C 97.663 267, 102.988 271.247, 102.996 281.312 C 103 286.024, 102.805 286.327, 93.629 295.917 C 86.200 303.679, 83.893 306.805, 82.504 310.989 C 80.377 317.392, 80.829 327.794, 83.461 333.008 C 85.332 336.714, 135.720 388, 137.491 388 C 138.808 388, 161 365.810, 161 364.493 C 161 363.956, 151.448 353.957, 139.773 342.273 L 118.547 321.029 123.179 316.265 C 134.080 305.054, 138.495 293.537, 137.771 278.195 C 137.012 262.113, 130.473 249.830, 118.017 241.093 C 106.392 232.938, 104.368 232.547, 71.972 232.198 C 56.281 232.029, 43.119 232.215, 42.722 232.612" stroke="none" fill="#00a239" fill-rule="evenodd"/></svg>